<svg xmlns="http://www.w3.org/2000/svg" data-name="Layer 1" viewBox="0 0 128 160" x="0px" y="0px"><title>Miscellaneous 219 solid</title><path d="M125.99963,127.99969a2.00092,2.00092,0,0,0,1.98438-2.25238l-5.05664-39.72839A2.00012,2.00012,0,0,0,119.529,84.8573l-7.92084,7.92041L83.41687,64.58594a1.99927,1.99927,0,0,0-2.82812,0L64.58594,80.58832a1.9992,1.9992,0,0,0,0,2.82806l28.1922,28.19232-7.92084,7.92084a1.99968,1.99968,0,0,0,1.16113,3.39795l39.72827,5.05609A2.01079,2.01079,0,0,0,125.99963,127.99969Z"/><path d="M.016,2.25269,5.07263,41.981A2.00012,2.00012,0,0,0,8.471,43.14264l7.92084-7.92035L44.58313,63.41406a1.99927,1.99927,0,0,0,2.82813,0L63.41406,47.41168a1.99927,1.99927,0,0,0,0-2.82812L35.22186,16.3913,43.1427,8.47046a1.99968,1.99968,0,0,0-1.16113-3.39795L2.2533.01636A2.00074,2.00074,0,0,0,.016,2.25269Z"/><text x="0" y="143" fill="#000000" font-size="5px" font-weight="bold" font-family="'Helvetica Neue', Helvetica, Arial-Unicode, Arial, Sans-serif">Created by WEBTECHOPS LLP</text><text x="0" y="148" fill="#000000" font-size="5px" font-weight="bold" font-family="'Helvetica Neue', Helvetica, Arial-Unicode, Arial, Sans-serif">from the Noun Project</text></svg>