<svg xmlns:dc="http://purl.org/dc/elements/1.1/" xmlns:cc="http://creativecommons.org/ns#" xmlns:rdf="http://www.w3.org/1999/02/22-rdf-syntax-ns#" xmlns:svg="http://www.w3.org/2000/svg" xmlns="http://www.w3.org/2000/svg" xmlns:sodipodi="http://sodipodi.sourceforge.net/DTD/sodipodi-0.dtd" xmlns:inkscape="http://www.inkscape.org/namespaces/inkscape" viewBox="0 0 26.458333 33.0729175" version="1.1" x="0px" y="0px"><g transform="translate(0,-270.54165)"><g transform="matrix(0.33086845,0,0,-0.33086845,-22.109586,487.50717)" style="" stroke-width="1.06621766"><g transform="matrix(1.0662176,0,0,1.0662176,-521.86252,-40.774361)"><g><path style="" d="m 623.94002,627.99063 -18.285,18.344 c -0.21,0.181 -0.493,0.246 -0.764,0.142 -0.251,-0.103 -0.42,-0.347 -0.42,-0.638 v -10.274 c -9.639,-0.101 -18.618,-2.97 -26.213,-7.806 -4.51,-2.856 -8.543,-6.387 -11.917,-10.497 -7.019,-8.582 -11.223,-19.531 -11.223,-31.435 0,-0.389 0.302,-0.828 0.684,-0.828 h 13.632 c 0.194,0 0.379,0.097 0.501,0.232 0.149,0.143 0.203,0.336 0.191,0.537 0,8.498 3.079,16.28 8.129,22.325 3.241,3.871 7.305,7 11.919,9.169 4.351,2.051 9.183,3.235 14.297,3.29 v -11.387 c 0,-0.274 0.169,-0.531 0.42,-0.641 0.271,-0.109 0.554,-0.039 0.764,0.149 l 18.285,18.324 c 0.256,0.256 0.256,0.709 0,0.994" fill="#000000" fill-opacity="1" fill-rule="nonzero" stroke="none"/></g></g></g></g><text x="0" y="41.458334" fill="#000000" font-size="5px" font-weight="bold" font-family="'Helvetica Neue', Helvetica, Arial-Unicode, Arial, Sans-serif">Created by Mitesh</text><text x="0" y="46.458334" fill="#000000" font-size="5px" font-weight="bold" font-family="'Helvetica Neue', Helvetica, Arial-Unicode, Arial, Sans-serif">from the Noun Project</text></svg>