<svg xmlns="http://www.w3.org/2000/svg" xmlns:xlink="http://www.w3.org/1999/xlink" viewBox="0 0 100 125" version="1.1" x="0px" y="0px"><title>5.8</title><desc>Created with Sketch.</desc><g stroke="none" stroke-width="1" fill="none" fill-rule="evenodd"><g fill="#000000"><polygon points="46 46 33 46 33 54 46 54 46 67 54 67 54 54 67 54 67 46 54 46 54 33 46 33"/><path d="M50,78 C65.463973,78 78,65.463973 78,50 C78,34.536027 65.463973,22 50,22 C34.536027,22 22,34.536027 22,50 C22,65.463973 34.536027,78 50,78 Z M50,86 C30.117749,86 14,69.882251 14,50 C14,30.117749 30.117749,14 50,14 C69.882251,14 86,30.117749 86,50 C86,69.882251 69.882251,86 50,86 Z" fill-rule="nonzero"/></g></g><text x="0" y="115" fill="#000000" font-size="5px" font-weight="bold" font-family="'Helvetica Neue', Helvetica, Arial-Unicode, Arial, Sans-serif">Created by Landan Lloyd</text><text x="0" y="120" fill="#000000" font-size="5px" font-weight="bold" font-family="'Helvetica Neue', Helvetica, Arial-Unicode, Arial, Sans-serif">from the Noun Project</text></svg>