<svg xmlns="http://www.w3.org/2000/svg" xmlns:xlink="http://www.w3.org/1999/xlink" xmlns:serif="http://www.serif.com/" viewBox="0 0 32 40" version="1.1" xml:space="preserve" style="" x="0px" y="0px" fill-rule="evenodd" clip-rule="evenodd" stroke-linejoin="round" stroke-miterlimit="2"><g transform="matrix(1,0,0,1,-148,-148)"><g transform="matrix(1,0,0,1,111,-37)"><path d="M63.722,196L42.278,196L43.825,212.176C43.978,213.779 45.269,215 46.81,215C49.889,215 56.111,215 59.19,215C60.731,215 62.022,213.779 62.175,212.176L63.722,196ZM56,200L56,210C56,210.552 56.448,211 57,211C57.552,211 58,210.552 58,210L58,200C58,199.448 57.552,199 57,199C56.448,199 56,199.448 56,200ZM48,200L48,210C48,210.552 48.448,211 49,211C49.552,211 50,210.552 50,210L50,200C50,199.448 49.552,199 49,199C48.448,199 48,199.448 48,200ZM52,200L52,210C52,210.552 52.448,211 53,211C53.552,211 54,210.552 54,210L54,200C54,199.448 53.552,199 53,199C52.448,199 52,199.448 52,200ZM42,194L64,194C65.105,194 66,193.217 66,192.25L66,191.375C66,190.408 65.105,189.625 64,189.625L59.535,189.625L58.426,188.169C57.869,187.439 56.933,187 55.93,187C54.399,187 51.601,187 50.07,187C49.067,187 48.131,187.439 47.574,188.169L46.465,189.625L42,189.625C40.895,189.625 40,190.408 40,191.375L40,192.25C40,193.217 40.895,194 42,194Z"/></g></g><text x="0" y="47" fill="#000000" font-size="5px" font-weight="bold" font-family="'Helvetica Neue', Helvetica, Arial-Unicode, Arial, Sans-serif">Created by Utari Nuraeni</text><text x="0" y="52" fill="#000000" font-size="5px" font-weight="bold" font-family="'Helvetica Neue', Helvetica, Arial-Unicode, Arial, Sans-serif">from the Noun Project</text></svg>